G04 DesignSpark PCB Gerber Version 11.0 Build 5877*
%FSLAX35Y35*%
%MOIN*%
%ADD20O,0.06000X0.12000*%
%ADD71R,0.07874X0.07874*%
%ADD10C,0.00500*%
%ADD11C,0.01000*%
%ADD13C,0.02000*%
%ADD14C,0.03000*%
%ADD12C,0.04000*%
%ADD19C,0.07000*%
%ADD17C,0.07874*%
%ADD70C,0.08000*%
%ADD15C,0.13780*%
%ADD16O,0.11000X0.06000*%
%ADD18O,0.14101X0.07050*%
X0Y0D02*
D02*
D10*
X12848Y11667D02*
X237258D01*
Y152219D01*
X12848D01*
Y11667D01*
X17285Y147781D02*
Y100211D01*
X37131Y120057D01*
G75*
G02*
X40801Y121579I3670J-3665D01*
G01*
X47654D01*
G75*
G02*
X51982Y128372I4328J2018D01*
G01*
X59030D01*
G75*
G02*
X63805Y123596I0J-4776D01*
G01*
G75*
G02*
X63804Y123502I-4774J-7D01*
G01*
X65399Y125096D01*
G75*
G02*
X69069Y126618I3670J-3665D01*
G01*
X92485D01*
G75*
G02*
X102514Y142555I10029J4813D01*
G01*
X107514D01*
G75*
G02*
X117451Y126431I0J-11124D01*
G01*
G75*
G02*
X118638Y121431I-9937J-5000D01*
G01*
G75*
G02*
X118583Y120328I-11124J-1D01*
G01*
X121546Y123291D01*
G75*
G02*
X128273Y131715I10968J-1860D01*
G01*
G75*
G02*
X132514Y135681I4241J-284D01*
G01*
X137514D01*
G75*
G02*
X141754Y131715I0J-4250D01*
G01*
G75*
G02*
X146669Y127749I-4241J-10284D01*
G01*
G75*
G02*
X151362Y131681I9880J-7027D01*
G01*
Y135909D01*
X161736D01*
Y131681D01*
G75*
G02*
X168112Y124370I-5187J-10959D01*
G01*
X175963Y116519D01*
G75*
G02*
X177484Y112848I-3665J-3670D01*
G01*
Y107280D01*
X180076Y104689D01*
X198572D01*
G75*
G02*
X211095Y111283I10812J-5345D01*
G01*
X208069Y114310D01*
G75*
G02*
X189386Y117983I-8055J8381D01*
G01*
G75*
G02*
Y127399I628J4708D01*
G01*
G75*
G02*
X208835Y130261I10628J-4708D01*
G01*
G75*
G02*
X210822Y147781I13069J7390D01*
G01*
X17285D01*
X175264Y122691D02*
G75*
G02*
X184764I4750J0D01*
G01*
G75*
G02*
X175264I-4750J0D01*
G01*
X17535D02*
G36*
X17535Y122691D02*
Y100461D01*
X37131Y120057D01*
G75*
G02*
X40801Y121579I3671J-3667D01*
G01*
X47654D01*
G75*
G02*
X47293Y122691I4328J2018D01*
G01*
X17535D01*
G37*
X118638Y121431D02*
G36*
X118638Y121431D02*
G75*
G02*
X118583Y120328I-11233J4D01*
G01*
X120946Y122691D01*
X118566D01*
G75*
G02*
X118638Y121431I-11054J-1261D01*
G01*
G37*
X175264Y122691D02*
G36*
X175264Y122691D02*
X169791D01*
X175963Y116519D01*
G75*
G02*
X177484Y112848I-3667J-3671D01*
G01*
Y107280D01*
X180076Y104689D01*
X198572D01*
G75*
G02*
X210845Y111317I10813J-5345D01*
G01*
Y111533D01*
X208069Y114310D01*
G75*
G02*
X189386Y117983I-8055J8381D01*
G01*
G75*
G02*
X185264Y122691I628J4708D01*
G01*
X184764D01*
G75*
G02*
X175264I-4750J0D01*
G01*
G37*
X17535Y147531D02*
G36*
X17535Y147531D02*
Y122691D01*
X47293D01*
G75*
G02*
X47207Y123596I4689J906D01*
G01*
G75*
G02*
X51982Y128372I4776J0D01*
G01*
X59030D01*
G75*
G02*
X63805Y123596I0J-4776D01*
G01*
G75*
G02*
Y123573I-2837J-12D01*
G01*
G75*
G02*
X63804Y123502I-2836J-4D01*
G01*
X65399Y125096D01*
G75*
G02*
X69069Y126618I3671J-3667D01*
G01*
X92485D01*
G75*
G02*
X91390Y131431I10029J4813D01*
G01*
G75*
G02*
X102514Y142555I11124J0D01*
G01*
X107514D01*
G75*
G02*
X118638Y131431I0J-11124D01*
G01*
G75*
G02*
X117451Y126431I-11124J0D01*
G01*
G75*
G02*
X118566Y122691I-9938J-5000D01*
G01*
X120946D01*
X121546Y123291D01*
G75*
G02*
X128273Y131715I10969J-1861D01*
G01*
G75*
G02*
X132514Y135681I4241J-284D01*
G01*
X137514D01*
G75*
G02*
X141754Y131715I1J-4249D01*
G01*
G75*
G02*
X146669Y127749I-4239J-10281D01*
G01*
G75*
G02*
X151362Y131681I9877J-7024D01*
G01*
Y135909D01*
X161736D01*
Y131681D01*
G75*
G02*
X168112Y124370I-5188J-10959D01*
G01*
X169791Y122691D01*
X175264D01*
G75*
G02*
X184764I4750J0D01*
G01*
X185264D01*
G75*
G02*
X189386Y127399I4750J0D01*
G01*
G75*
G02*
X208835Y130261I10628J-4709D01*
G01*
G75*
G02*
X206890Y137652I13069J7390D01*
G01*
G75*
G02*
X210598Y147531I15014J0D01*
G01*
X17535D01*
G37*
X35465Y86871D02*
Y53393D01*
X47796Y41062D01*
G75*
G02*
X51081Y45294I10171J-4505D01*
G01*
G75*
G02*
X48942Y46585I1531J4956D01*
G01*
X39892Y55635D01*
G75*
G02*
X38370Y59305I3665J3670D01*
G01*
Y79384D01*
G75*
G02*
X39892Y83054I5187J0D01*
G01*
X40333Y83495D01*
G75*
G02*
X40333Y83596I11688J96D01*
G01*
G75*
G02*
X46006Y93596I11650J0D01*
G01*
G75*
G02*
X43850Y95256I5976J10000D01*
G01*
X35465Y86871D01*
G36*
X35465Y86871D02*
Y53393D01*
X47796Y41062D01*
G75*
G02*
X51081Y45294I10171J-4505D01*
G01*
G75*
G02*
X48942Y46585I1531J4956D01*
G01*
X39892Y55635D01*
G75*
G02*
X38370Y59305I3665J3670D01*
G01*
Y79384D01*
G75*
G02*
X39892Y83054I5187J0D01*
G01*
X40333Y83495D01*
G75*
G02*
X40333Y83596I11688J96D01*
G01*
G75*
G02*
X46006Y93596I11650J0D01*
G01*
G75*
G02*
X43850Y95256I5976J10000D01*
G01*
X35465Y86871D01*
G37*
X69335Y98045D02*
G75*
G02*
X69335Y98165I11624J-17D01*
G01*
G75*
G02*
X65006Y93596I-10306J5433D01*
G01*
G75*
G02*
Y73596I-5976J-10000D01*
G01*
G75*
G02*
X69756Y68143I-5976J-10000D01*
G01*
G75*
G02*
X70928Y67262I-2498J-4546D01*
G01*
X74839Y63350D01*
X84755D01*
G75*
G02*
X107393Y55437I10889J-5187D01*
G01*
X133895D01*
G75*
G02*
X134361Y62425I11749J2727D01*
G01*
X126746D01*
G75*
G02*
X123076Y63947I0J5187D01*
G01*
X117963Y69060D01*
G75*
G02*
X116441Y72730I3665J3670D01*
G01*
Y104794D01*
G75*
G02*
X111754Y101147I-8928J6637D01*
G01*
G75*
G02*
X107514Y97181I-4241J284D01*
G01*
X102514D01*
G75*
G02*
X98273Y101147I0J4250D01*
G01*
G75*
G02*
X93015Y105642I4241J10284D01*
G01*
X91100Y103726D01*
G75*
G02*
X80959Y86421I-10141J-5681D01*
G01*
G75*
G02*
X69335Y98045I0J11624D01*
G01*
X90457Y77848D02*
G75*
G02*
X100831I5187J0D01*
G01*
G75*
G02*
X90457I-5187J0D01*
G01*
X80959Y82795D02*
G75*
G02*
X85709Y78045I0J-4750D01*
G01*
G75*
G02*
X80959Y73295I-4750J0D01*
G01*
G75*
G02*
X76209Y78045I0J4750D01*
G01*
G75*
G02*
X80959Y82795I4750J0D01*
G01*
X65256Y73750D02*
G36*
X65256Y73750D02*
Y73443D01*
G75*
G02*
X69756Y68143I-6227J-9847D01*
G01*
G75*
G02*
X70928Y67262I-2509J-4561D01*
G01*
X74839Y63350D01*
X84755D01*
G75*
G02*
X107705Y58163I10889J-5187D01*
G01*
G75*
G02*
X107448Y55687I-12061J1D01*
G01*
X133840D01*
G75*
G02*
X133583Y58163I11807J2477D01*
G01*
G75*
G02*
X134111Y61693I12065J0D01*
G01*
Y62425D01*
X126746D01*
G75*
G02*
X123076Y63947I1J5188D01*
G01*
X117963Y69060D01*
G75*
G02*
X116441Y72730I3667J3671D01*
G01*
Y77848D01*
X100831D01*
G75*
G02*
X90457I-5187J0D01*
G01*
X85705D01*
G75*
G02*
X80959Y73295I-4746J197D01*
G01*
G75*
G02*
X76213Y77848I0J4750D01*
G01*
X69162D01*
G75*
G02*
X65256Y73750I-10133J5748D01*
G01*
G37*
Y93750D02*
G36*
X65256Y93750D02*
Y93443D01*
G75*
G02*
X70679Y83596I-6226J-9846D01*
G01*
G75*
G02*
X69162Y77848I-11650J0D01*
G01*
X76213D01*
G75*
G02*
X76209Y78045I4748J193D01*
G01*
G75*
G02*
X80959Y82795I4750J0D01*
G01*
G75*
G02*
X85709Y78045I0J-4750D01*
G01*
G75*
G02*
X85705Y77848I-4752J-4D01*
G01*
X90457D01*
G75*
G02*
X100831I5187J0D01*
G01*
X116441D01*
Y104794D01*
G75*
G02*
X111754Y101147I-8926J6635D01*
G01*
G75*
G02*
X107514Y97181I-4241J284D01*
G01*
X102514D01*
G75*
G02*
X98273Y101147I-1J4249D01*
G01*
G75*
G02*
X93172Y105392I4241J10284D01*
G01*
X92765D01*
X91100Y103726D01*
G75*
G02*
X92583Y98045I-10141J-5681D01*
G01*
G75*
G02*
X80959Y86421I-11624J0D01*
G01*
G75*
G02*
X69335Y98045I0J11624D01*
G01*
G75*
G02*
X69335Y98165I1708723J-11219D01*
G01*
G75*
G02*
X65256Y93750I-10310J5436D01*
G01*
G37*
X73780Y116244D02*
G75*
G02*
X75967Y114939I-1483J-4970D01*
G01*
X81097Y109809D01*
X86780Y115492D01*
G75*
G02*
X87710Y116244I4022J-4022D01*
G01*
X73780D01*
G36*
X73780Y116244D02*
G75*
G02*
X75967Y114939I-1483J-4970D01*
G01*
X81097Y109809D01*
X86780Y115492D01*
G75*
G02*
X87710Y116244I4022J-4022D01*
G01*
X73780D01*
G37*
X85135Y45063D02*
G75*
G02*
X87786Y41784I-7169J-8506D01*
G01*
G75*
G02*
X105696Y39016I7739J-9250D01*
G01*
X111743Y45063D01*
X85135D01*
G36*
X85135Y45063D02*
G75*
G02*
X87786Y41784I-7169J-8506D01*
G01*
G75*
G02*
X105696Y39016I7739J-9250D01*
G01*
X111743Y45063D01*
X85135D01*
G37*
X119328Y37976D02*
X97456Y16104D01*
X232821D01*
Y127345D01*
G75*
G02*
X212581Y125882I-10917J10307D01*
G01*
X223169Y115295D01*
G75*
G02*
X224835Y111274I-4021J-4021D01*
G01*
Y89108D01*
G75*
G02*
X223169Y85087I-5687J0D01*
G01*
X221540Y83457D01*
G75*
G02*
X221633Y83366I-3926J-4104D01*
G01*
X225925Y79074D01*
G75*
G02*
X227591Y75053I-4021J-4021D01*
G01*
Y48675D01*
G75*
G02*
X225925Y44654I-5687J0D01*
G01*
X220807Y39536D01*
G75*
G02*
X216781Y37870I-4021J4021D01*
G01*
X172684D01*
X170847Y36033D01*
G75*
G02*
X152415Y22634I-11542J-3500D01*
G01*
G75*
G02*
X134763Y37976I-6890J9900D01*
G01*
X119328D01*
X204118Y32533D02*
G75*
G02*
X214492I5187J0D01*
G01*
G75*
G02*
X204118I-5187J0D01*
G01*
X113885D02*
G36*
X113885Y32533D02*
X97706Y16354D01*
X232571D01*
Y32533D01*
X214492D01*
G75*
G02*
X204118I-5187J0D01*
G01*
X171366D01*
G75*
G02*
X152415Y22634I-12061J0D01*
G01*
G75*
G02*
X133465Y32533I-6890J9900D01*
G01*
X113885D01*
G37*
X119328Y37976D02*
G36*
X119328Y37976D02*
X113885Y32533D01*
X133465D01*
G75*
G02*
X134763Y37976I12062J0D01*
G01*
X119328D01*
G37*
X171366Y32533D02*
G36*
X171366Y32533D02*
X204118D01*
G75*
G02*
X214492I5187J0D01*
G01*
X232571D01*
Y127086D01*
G75*
G02*
X212581Y125882I-10667J10565D01*
G01*
X223169Y115295D01*
G75*
G02*
X224835Y111274I-4022J-4022D01*
G01*
Y89108D01*
G75*
G02*
X223169Y85087I-5688J1D01*
G01*
X221540Y83457D01*
G75*
G02*
X221633Y83366I-3568J-3738D01*
G01*
X225925Y79074D01*
G75*
G02*
X227591Y75053I-4022J-4022D01*
G01*
Y48675D01*
G75*
G02*
X225925Y44654I-5688J1D01*
G01*
X220807Y39536D01*
G75*
G02*
X216781Y37870I-4022J4023D01*
G01*
X172684D01*
X170847Y36033D01*
G75*
G02*
X171366Y32533I-11543J-3500D01*
G01*
G37*
X171084Y62425D02*
G75*
G02*
X171074Y56224I-11662J-3080D01*
G01*
X179066D01*
X172865Y62425D01*
X171084D01*
G36*
X171084Y62425D02*
G75*
G02*
X171074Y56224I-11662J-3080D01*
G01*
X179066D01*
X172865Y62425D01*
X171084D01*
G37*
X171337Y77733D02*
G75*
G02*
X169515Y72799I-11953J1611D01*
G01*
X175014D01*
G75*
G02*
X176483Y72587I0J-5188D01*
G01*
X171337Y77733D01*
G36*
X171337Y77733D02*
G75*
G02*
X169515Y72799I-11953J1611D01*
G01*
X175014D01*
G75*
G02*
X176483Y72587I0J-5188D01*
G01*
X171337Y77733D01*
G37*
X177445Y94337D02*
Y86296D01*
X190194Y73547D01*
X198807D01*
G75*
G02*
X202641Y89344I10576J5797D01*
G01*
G75*
G02*
X198422Y94315I6743J10000D01*
G01*
X177927D01*
G75*
G02*
X177445Y94337I0J5187D01*
G01*
G36*
X177445Y94337D02*
Y86296D01*
X190194Y73547D01*
X198807D01*
G75*
G02*
X202641Y89344I10576J5797D01*
G01*
G75*
G02*
X198422Y94315I6743J10000D01*
G01*
X177927D01*
G75*
G02*
X177445Y94337I0J5187D01*
G01*
G37*
D02*
D11*
X48956Y123596D02*
X46959D01*
X55506Y126622D02*
Y128620D01*
X77959Y78045D02*
X75959D01*
X80959Y75045D02*
Y73045D01*
Y81045D02*
Y83045D01*
X83959Y78045D02*
X85959D01*
X92207Y77848D02*
X90207D01*
X95644Y74411D02*
Y72411D01*
Y81285D02*
Y83285D01*
X99081Y77848D02*
X101081D01*
X102404Y98821D02*
X100838Y97255D01*
X107624Y98821D02*
X109190Y97255D01*
X132404Y134041D02*
X130838Y135607D01*
X137624Y134041D02*
X139190Y135607D01*
X152966Y134306D02*
X151112Y136159D01*
X160133Y134306D02*
X161986Y136159D01*
X177014Y122691D02*
X175014D01*
X180014Y119691D02*
Y117691D01*
Y125691D02*
Y127691D01*
X183014Y122691D02*
X185014D01*
X187893Y120570D02*
X186478Y119156D01*
X187893Y124812D02*
X186478Y126226D01*
X206875Y30103D02*
X205461Y28689D01*
X206875Y34964D02*
X205461Y36378D01*
X211735Y30103D02*
X213150Y28689D01*
X211735Y34964D02*
X213150Y36378D01*
D02*
D12*
X55506Y123596D02*
Y139226D01*
X60624Y144344D01*
X111274D01*
X67967Y33557D02*
Y40407D01*
X63636Y44738D01*
X49856D01*
X38045Y56549D01*
Y83715D01*
X45919Y91589D01*
X75447D01*
X80959Y86077D01*
Y78045D01*
X95447D01*
X95644Y77848D01*
X107455D01*
X115329Y85722D01*
Y101037D01*
X111274Y144344D02*
X129778D01*
X115329Y101037D02*
Y104974D01*
Y140289D01*
X111274Y144344D01*
X115329Y104974D02*
X111785Y101431D01*
X105014D01*
X129778Y144344D02*
X197455D01*
X227415Y114384D01*
Y45526D01*
X215211Y33321D01*
X210093D01*
X209305Y32533D01*
X135014Y131431D02*
Y139108D01*
X129778Y144344D01*
X156549Y130722D02*
X176470D01*
X179384Y127809D01*
Y123321D01*
X180014Y122691D01*
X156549Y130722D02*
X135722D01*
X135014Y131431D01*
X180014Y122691D02*
X190014D01*
D02*
D13*
X55506Y63596D02*
X67258D01*
X72691Y58163D01*
X95644D01*
X77967Y33557D02*
Y28754D01*
X72297Y23085D01*
X49069D01*
X23478Y48675D01*
Y92376D01*
X42376Y111274D01*
X72297D01*
X81451Y102120D01*
X77967Y33557D02*
X94502D01*
X95526Y32533D01*
X115329Y101037D02*
X105014D01*
Y101431D01*
X126234Y89620D02*
Y81746D01*
X130959Y77022D01*
X144817D01*
X145644Y77848D01*
X126234Y93163D02*
Y89620D01*
X135014Y111431D02*
X129935D01*
X126234Y107730D01*
Y93163D01*
X135014Y121431D02*
X127022D01*
X121628Y116037D01*
Y72730D01*
X126746Y67612D01*
X145644D01*
Y58163D02*
Y64581D01*
X148675Y67612D01*
X145644D02*
X148675D01*
X155368D01*
X149659Y89620D02*
X129778D01*
X126234Y93163D01*
X149659Y89620D02*
X159384Y99344D01*
X155368Y67612D02*
X175014D01*
X183321Y59305D01*
X209384D01*
X209423Y59344D01*
X155368Y67612D02*
X155486D01*
X159423Y71549D01*
Y79305D01*
X159384Y79344D01*
X156549Y120722D02*
X164423D01*
X172297Y112848D01*
Y105132D01*
X172376Y105053D01*
X159423Y59344D02*
X159344D01*
X150250Y50250D01*
X52612D01*
X43557Y59305D01*
Y79384D01*
X47494Y83321D01*
X55230D01*
X55506Y83596D01*
X172376Y105053D02*
X172258Y105171D01*
Y84148D01*
X188045Y68360D01*
X213242D01*
X217179Y64423D01*
Y54187D01*
X214030Y51037D01*
X165211D01*
X157337Y43163D01*
X117179D01*
X91195Y17179D01*
X47494D01*
X19148Y45526D01*
Y94738D01*
X40801Y116392D01*
X64030D01*
X69069Y121431D01*
X105014D01*
X209384Y99344D02*
X209226Y99502D01*
X177927D01*
X172376Y105053D01*
D02*
D14*
X55506Y103596D02*
X44148D01*
X29778Y89226D01*
Y51037D01*
X47494Y33321D01*
X57730D01*
X57967Y33557D01*
X81451Y102120D02*
X80959Y101628D01*
Y98045D01*
X105014Y111431D02*
X97494D01*
Y111470D01*
X90801D01*
X81451Y102120D01*
X145526Y32533D02*
X159305D01*
X200014Y122691D02*
X207730D01*
X219148Y111274D01*
Y89108D01*
X209384Y79344D01*
X217612D01*
X221904Y75053D01*
Y48675D01*
X216785Y43557D01*
X170329D01*
X159305Y32533D01*
D02*
D15*
X25447Y23085D03*
X221904Y137652D03*
D02*
D16*
X105014Y101431D03*
Y111431D03*
Y121431D03*
Y131431D03*
X135014Y101431D03*
Y111431D03*
Y121431D03*
Y131431D03*
D02*
D17*
X95526Y32533D03*
X95644Y58163D03*
Y77848D03*
X145526Y32533D03*
X145644Y58163D03*
Y77848D03*
X159305Y32533D03*
X159384Y79344D03*
Y99344D03*
X159423Y59344D03*
X209305Y32533D03*
X209384Y79344D03*
Y99344D03*
X209423Y59344D03*
D02*
D18*
X55506Y63596D03*
Y83596D03*
Y103596D03*
Y123596D03*
D02*
D19*
X80959Y78045D03*
Y98045D03*
X180014Y122691D03*
X190014D03*
X200014D03*
D02*
D70*
X156549Y120722D03*
D02*
D71*
Y130722D03*
D02*
D20*
X57967Y33557D03*
X67967D03*
X77967D03*
X0Y0D02*
M02*
