G04 DesignSpark PCB Gerber Version 11.0 Build 5877*
%FSLAX35Y35*%
%MOIN*%
%ADD10C,0.00500*%
%ADD28C,0.10000*%
X0Y0D02*
D02*
D10*
X12848Y11667D02*
X237258D01*
Y152219D01*
X12848D01*
Y11667D01*
X35447Y29022D02*
X37009Y32772D01*
X38572Y29022D01*
X36072Y30585D02*
X37947D01*
X40447Y29022D02*
Y32772D01*
Y30897D02*
X41384D01*
X43572Y32772D01*
X41384Y30897D02*
X43572Y29022D01*
X65506Y69534D02*
X67069Y73284D01*
X68631Y69534D01*
X66131Y71096D02*
X68006D01*
X70506Y69534D02*
Y73284D01*
X73631D01*
X73006Y71409D02*
X70506D01*
Y69534D02*
X73631D01*
X65506Y89534D02*
X67069Y93284D01*
X68631Y89534D01*
X66131Y91096D02*
X68006D01*
X70506Y89534D02*
Y93284D01*
X73631D01*
X73006Y91409D02*
X70506D01*
Y89534D02*
X73631D01*
X65506Y109534D02*
X67069Y113284D01*
X68631Y109534D01*
X66131Y111096D02*
X68006D01*
X70506Y109534D02*
Y113284D01*
X73631D01*
X73006Y111409D02*
X70506D01*
Y109534D02*
X73631D01*
X65506Y129534D02*
X67069Y133284D01*
X68631Y129534D01*
X66131Y131096D02*
X68006D01*
X70506Y129534D02*
Y133284D01*
X73631D01*
X73006Y131409D02*
X70506D01*
Y129534D02*
X73631D01*
X67967Y39494D02*
X69529Y43244D01*
X71092Y39494D01*
X68592Y41057D02*
X70467D01*
X72967Y39494D02*
Y43244D01*
X74842D01*
X75467Y42932D01*
X75779Y42620D01*
X76092Y41994D01*
Y40744D01*
X75779Y40120D01*
X75467Y39807D01*
X74842Y39494D01*
X72967D01*
X77967D02*
X79529Y43244D01*
X81092Y39494D01*
X78592Y41057D02*
X80467D01*
X82967Y39494D02*
Y43244D01*
X84842D01*
X85467Y42932D01*
X85779Y42620D01*
X86092Y41994D01*
Y40744D01*
X85779Y40120D01*
X85467Y39807D01*
X84842Y39494D01*
X82967D01*
X87967D02*
X89529Y43244D01*
X91092Y39494D01*
X88592Y41057D02*
X90467D01*
X92967Y39494D02*
Y43244D01*
X94842D01*
X95467Y42932D01*
X95779Y42620D01*
X96092Y41994D01*
Y40744D01*
X95779Y40120D01*
X95467Y39807D01*
X94842Y39494D01*
X92967D01*
X90959Y83983D02*
Y87733D01*
X94084Y83983D01*
Y87733D01*
X90959Y103983D02*
Y107733D01*
X94084Y103983D01*
Y107733D01*
X105526Y42221D02*
X105838Y38471D01*
X107088Y40346D01*
X108338Y38471D01*
X108651Y42221D01*
X105644Y67851D02*
X105956Y64101D01*
X107206Y65976D01*
X108456Y64101D01*
X108769Y67851D01*
X105644Y87536D02*
X105956Y83786D01*
X107206Y85661D01*
X108456Y83786D01*
X108769Y87536D01*
X115014Y107369D02*
X116576Y111119D01*
X118139Y107369D01*
X115639Y108931D02*
X117514D01*
X115014Y117369D02*
X116576Y121119D01*
X118139Y117369D01*
X115639Y118931D02*
X117514D01*
X115014Y127369D02*
X116576Y131119D01*
X118139Y127369D01*
X115639Y128931D02*
X117514D01*
X115014Y137369D02*
X116576Y141119D01*
X118139Y137369D01*
X115639Y138931D02*
X117514D01*
X145014Y107369D02*
X146576Y111119D01*
X148139Y107369D01*
X145639Y108931D02*
X147514D01*
X145014Y117369D02*
X146576Y121119D01*
X148139Y117369D01*
X145639Y118931D02*
X147514D01*
X145014Y127369D02*
X146576Y131119D01*
X148139Y127369D01*
X145639Y128931D02*
X147514D01*
X145014Y137369D02*
X146576Y141119D01*
X148139Y137369D01*
X145639Y138931D02*
X147514D01*
X155526Y42221D02*
X155838Y38471D01*
X157088Y40346D01*
X158338Y38471D01*
X158651Y42221D01*
X155644Y67851D02*
X155956Y64101D01*
X157206Y65976D01*
X158456Y64101D01*
X158769Y67851D01*
X155644Y87536D02*
X155956Y83786D01*
X157206Y85661D01*
X158456Y83786D01*
X158769Y87536D01*
X168737Y128222D02*
X169674D01*
Y127910D01*
X169362Y127285D01*
X169049Y126972D01*
X168424Y126660D01*
X167799D01*
X167174Y126972D01*
X166862Y127285D01*
X166549Y127910D01*
Y129160D01*
X166862Y129785D01*
X167174Y130098D01*
X167799Y130410D01*
X168424D01*
X169049Y130098D01*
X169362Y129785D01*
X169674Y129160D01*
X168737Y138222D02*
X169674D01*
Y137910D01*
X169362Y137285D01*
X169049Y136972D01*
X168424Y136660D01*
X167799D01*
X167174Y136972D01*
X166862Y137285D01*
X166549Y137910D01*
Y139160D01*
X166862Y139785D01*
X167174Y140098D01*
X167799Y140410D01*
X168424D01*
X169049Y140098D01*
X169362Y139785D01*
X169674Y139160D01*
X169305Y42221D02*
X169618Y38471D01*
X170868Y40346D01*
X172118Y38471D01*
X172430Y42221D01*
X169384Y89032D02*
X169696Y85282D01*
X170946Y87157D01*
X172196Y85282D01*
X172509Y89032D01*
X169384Y109032D02*
X169696Y105282D01*
X170946Y107157D01*
X172196Y105282D01*
X172509Y109032D01*
X169423Y69032D02*
X169736Y65282D01*
X170986Y67157D01*
X172236Y65282D01*
X172548Y69032D01*
X190014Y128628D02*
Y132378D01*
X193139Y128628D01*
Y132378D01*
X200014Y128628D02*
Y132378D01*
X203139Y128628D01*
Y132378D01*
X210014Y128628D02*
Y132378D01*
X213139Y128628D01*
Y132378D01*
X219305Y42221D02*
X219618Y38471D01*
X220868Y40346D01*
X222118Y38471D01*
X222430Y42221D01*
X219384Y89032D02*
X219696Y85282D01*
X220946Y87157D01*
X222196Y85282D01*
X222509Y89032D01*
X219384Y109032D02*
X219696Y105282D01*
X220946Y107157D01*
X222196Y105282D01*
X222509Y109032D01*
X219423Y69032D02*
X219736Y65282D01*
X220986Y67157D01*
X222236Y65282D01*
X222548Y69032D01*
X231904Y143589D02*
X233466Y147339D01*
X235029Y143589D01*
X232529Y145152D02*
X234404D01*
X236904Y143589D02*
Y147339D01*
Y145464D02*
X237841D01*
X240029Y147339D01*
X237841Y145464D02*
X240029Y143589D01*
D02*
D28*
X25447Y23085D03*
X55506Y63596D03*
Y83596D03*
Y103596D03*
Y123596D03*
X57967Y33557D03*
X67967D03*
X77967D03*
X80959Y78045D03*
Y98045D03*
X95526Y32533D03*
X95644Y58163D03*
Y77848D03*
X105014Y101431D03*
Y111431D03*
Y121431D03*
Y131431D03*
X135014Y101431D03*
Y111431D03*
Y121431D03*
Y131431D03*
X145526Y32533D03*
X145644Y58163D03*
Y77848D03*
X156549Y120722D03*
Y130722D03*
X159305Y32533D03*
X159384Y79344D03*
Y99344D03*
X159423Y59344D03*
X180014Y122691D03*
X190014D03*
X200014D03*
X209305Y32533D03*
X209384Y79344D03*
Y99344D03*
X209423Y59344D03*
X221904Y137652D03*
X0Y0D02*
M02*
