G05
M48
;#@! TF.GenerationSoftware,DesignSpark,DesignSpark PCB,11.0.5875
;#@! TF.CreationDate,2024-06-07T12:27:40--1:00*
;#@! TF.FileFunction,Plated,0,1,PTH
;FILE_FORMAT=3:5
;TYPE=PLATED
INCH,TZ
FMAT,2
T1C000.02500
T2C000.03150
T3C000.03200
T4C000.03500
T5C000.04000
T6C000.04700
T7C000.11811
%
T001
X80959Y78045
X80959Y98045
X180014Y122691
X190014Y122691
X200014Y122691
T002
X95526Y32533
X95644Y58163
X95644Y77848
X145526Y32533
X145644Y58163
X145644Y77848
X159305Y32533
X159384Y79344
X159384Y99344
X159423Y59344
X209305Y32533
X209384Y79344
X209384Y99344
X209423Y59344
T003
X105014Y101431
X105014Y111431
X105014Y121431
X105014Y131431
X135014Y101431
X135014Y111431
X135014Y121431
X135014Y131431
T004
X156549Y120722
X156549Y130722
T005
X57967Y33557
X67967Y33557
X77967Y33557
T006
X55506Y63596
X55506Y83596
X55506Y103596
X55506Y123596
T007
X25447Y23085
X221904Y137652
M30
